name C:\Users\u0101727\Documents\MyRepositories\upper-imu-dc\Results\main_tracking\Case_10\FLX01_linearAccelerations_groundFrame.mot
datacolumns 4
datarows 105
range 5.01000000 6.05000000
endheader 
time	radius_imu_x	radius_imu_y	radius_imu_z	
          5.01000000	         -0.27610081	         10.75752882	         -1.71169266	
          5.02000000	         -0.13447715	         10.78445115	         -1.82591251	
          5.03000000	          0.01492311	         10.80121246	         -1.89852237	
          5.04000000	          0.13901569	         10.81536646	         -1.87898117	
          5.05000000	          0.20897718	         10.83360890	         -1.75087864	
          5.06000000	          0.21331550	         10.85837172	         -1.54452601	
          5.07000000	          0.16279883	         10.88466140	         -1.32422696	
          5.08000000	          0.08510632	         10.89963593	         -1.15811162	
          5.09000000	          0.01284379	         10.88697129	         -1.08798854	
          5.10000000	         -0.02783232	         10.83364888	         -1.11745512	
          5.11000000	         -0.02324926	         10.73468625	         -1.22340498	
          5.12000000	          0.02788407	         10.59347328	         -1.38167610	
          5.13000000	          0.11756702	         10.41989412	         -1.58636236	
          5.14000000	          0.23028309	         10.22976485	         -1.84429664	
          5.15000000	          0.34411587	         10.04453391	         -2.15086805	
          5.16000000	          0.43583564	          9.88740972	         -2.47434413	
          5.17000000	          0.49169266	          9.77556979	         -2.76796750	
          5.18000000	          0.51791963	          9.71312550	         -3.00053601	
          5.19000000	          0.54087806	          9.69026506	         -3.17804671	
          5.20000000	          0.59474892	          9.68939982	         -3.34182945	
          5.21000000	          0.70588540	          9.69459423	         -3.55001506	
          5.22000000	          0.88309229	          9.69983587	         -3.85359141	
          5.23000000	          1.11520351	          9.71273193	         -4.27343582	
          5.24000000	          1.37279691	          9.75137071	         -4.78397975	
          5.25000000	          1.61295031	          9.83484697	         -5.31302436	
          5.26000000	          1.78874033	          9.97252568	         -5.76345419	
          5.27000000	          1.86198439	         10.15942031	         -6.04723925	
          5.28000000	          1.81308298	         10.37975089	         -6.11032111	
          5.29000000	          1.64309282	         10.61421355	         -5.94162931	
          5.30000000	          1.36742389	         10.84550539	         -5.56791217	
          5.31000000	          1.00547340	         11.06034355	         -5.03814878	
          5.32000000	          0.57282651	         11.24908190	         -4.40452051	
          5.33000000	          0.07960862	         11.40480117	         -3.70760481	
          5.34000000	         -0.46657387	         11.52289306	         -2.96960051	
          5.35000000	         -1.05675515	         11.60094360	         -2.19583612	
          5.36000000	         -1.67869494	         11.63849246	         -1.38116078	
          5.37000000	         -2.31763116	         11.63659989	         -0.51658633	
          5.38000000	         -2.95853142	         11.59729869	          0.40574713	
          5.39000000	         -3.58876590	         11.52324618	          1.38948396	
          5.40000000	         -4.20053938	         11.41796454	          2.43277039	
          5.41000000	         -4.79285577	         11.28654306	          3.52744155	
          5.42000000	         -5.37072214	         11.13627520	          4.65630286	
          5.43000000	         -5.94278129	         10.97623753	          5.78909908	
          5.44000000	         -6.51628119	         10.81610618	          6.88114134	
          5.45000000	         -7.09260665	         10.65991628	          7.87659260	
          5.46000000	         -7.66315864	         10.51372548	          8.70984157	
          5.47000000	         -8.21653027	         10.35727509	          9.32284970	
          5.48000000	         -8.66676165	         10.21844956	          9.70788512	
          5.49000000	         -9.05319241	         10.01886654	          9.88114004	
          5.50000000	         -9.37416423	          9.69138644	          9.73599123	
          5.51000000	         -9.57372422	          9.59711643	          9.55726800	
          5.52000000	         -9.86219043	          9.46131555	          8.97077010	
          5.53000000	         -9.68079202	          9.28540579	          8.05907745	
          5.54000000	         -9.51494164	          9.30180105	          7.25635018	
          5.55000000	         -9.02197471	          9.45167165	          6.27757471	
          5.56000000	         -8.32389990	          9.63897756	          5.01852708	
          5.57000000	         -7.50829203	          9.90341071	          3.66202748	
          5.58000000	         -6.62529242	         10.19782187	          2.33323406	
          5.59000000	         -5.72585978	         10.49182367	          1.10773824	
          5.60000000	         -4.85161102	         10.75273143	          0.02910677	
          5.61000000	         -4.03584514	         10.95681878	         -0.88331161	
          5.62000000	         -3.30204272	         11.08993788	         -1.62844186	
          5.63000000	         -2.66303874	         11.14862722	         -2.22001025	
          5.64000000	         -2.11987570	         11.13950937	         -2.68422228	
          5.65000000	         -1.66134696	         11.07764474	         -3.05658198	
          5.66000000	         -1.26505396	         10.98323414	         -3.37664742	
          5.67000000	         -0.90036130	         10.87727643	         -3.68105135	
          5.68000000	         -0.53316868	         10.77722254	         -3.99586849	
          5.69000000	         -0.13403276	         10.69835320	         -4.33116581	
          5.70000000	          0.30160677	         10.65480289	         -4.66561697	
          5.71000000	          0.75288304	         10.69238858	         -5.00113164	
          5.72000000	          0.98264098	         10.76953277	         -5.13459305	
          5.73000000	          1.68414160	         10.30559399	         -5.87295268	
          5.74000000	          2.04089825	          9.74634967	         -6.40228813	
          5.75000000	          1.81806539	         10.17076798	         -5.94736097	
          5.76000000	          2.22771986	         10.27029545	         -5.89817749	
          5.77000000	          2.62017330	         10.38158423	         -5.66229630	
          5.78000000	          2.93992045	         10.56187480	         -5.27337324	
          5.79000000	          2.94842503	         10.72214460	         -4.57096139	
          5.80000000	          3.24692100	         10.49205736	         -4.50206778	
          5.81000000	          3.43322962	         10.10409963	         -4.40445711	
          5.82000000	          3.26104848	         10.63992492	         -3.22149779	
          5.83000000	          3.33573996	         10.99819102	         -2.21804919	
          5.84000000	          3.04358990	         11.11711154	         -1.16287787	
          5.85000000	          2.77681472	         10.78674395	         -1.36876769	
          5.86000000	          2.33257305	         11.13037724	         -0.38999373	
          5.87000000	          1.62682099	         10.26812718	         -1.11921523	
          5.88000000	          1.52236138	         10.78662292	         -0.18891661	
          5.89000000	          1.12755974	         11.06800338	          0.92026384	
          5.90000000	          1.81406749	         10.43524632	         -0.84185278	
          5.91000000	          1.94202855	         10.96209628	         -0.03879899	
          5.92000000	          2.28922907	         10.97502757	          0.26995865	
          5.93000000	          2.50476807	         11.05474294	          0.72315476	
          5.94000000	          2.48717248	         11.01686372	          0.98872862	
          5.95000000	          2.16189688	         10.67344050	         -0.02766453	
          5.96000000	          1.84578648	         10.75386911	         -0.52981745	
          5.97000000	          2.07212306	         10.64088963	         -0.36455483	
          5.98000000	          1.62708477	         10.77921010	          1.23503643	
          5.99000000	          1.48498160	         10.35825999	          0.10982028	
          6.00000000	          1.24556649	         10.39162870	         -0.46751196	
          6.01000000	          1.12016562	         10.20768547	         -0.29862433	
          6.02000000	          1.24618075	         10.10419112	         -0.52327680	
          6.03000000	          1.12256005	         10.40648584	          0.22907279	
          6.04000000	          1.44580742	         10.42666428	          0.30625625	
          6.05000000	          1.88745367	         10.45613136	          0.16572304	
